<svg width="21" height="25" viewBox="0 0 21 25" fill="none" xmlns="http://www.w3.org/2000/svg">
<path d="M6.20307 0L5.42182 0C4.77461 0 4.24995 0.524658 4.24995 1.17188L4.24995 18.75H1.9062C0.862887 18.75 0.341647 20.0146 1.07754 20.7505L4.98379 24.6568C5.44145 25.1144 6.18344 25.1144 6.64106 24.6568L10.5473 20.7505C11.2803 20.0174 10.7664 18.75 9.7187 18.75H7.37495L7.37495 1.17188C7.37495 0.524658 6.85029 0 6.20307 0ZM13.6249 23.8281L13.6249 6.25H11.2812C10.2405 6.25 9.71479 4.98721 10.4525 4.24946L14.3588 0.343213C14.8165 -0.114404 15.5584 -0.114404 16.0161 0.343213L19.9223 4.24946C20.6561 4.98325 20.1404 6.25 19.0937 6.25H16.7499V23.8281C16.7499 24.4753 16.2253 25 15.5781 25H14.7968C14.1496 25 13.6249 24.4753 13.6249 23.8281Z" fill="#ACACAC"/>
</svg>
